<svg width="26" height="31" viewBox="0 0 26 31" fill="none" xmlns="http://www.w3.org/2000/svg">
<path d="M1.27766 25.9421H6.12461C6.26402 25.9421 6.39772 25.8924 6.49629 25.8039C6.59487 25.7153 6.65025 25.5952 6.65025 25.47V24.7783H8.64507L10.2562 26.0758C10.9593 26.6424 11.8709 26.9555 12.8155 26.9549H15.7591V27.8992C15.7591 28.6708 16.1004 29.4108 16.7078 29.9564C17.3152 30.502 18.1391 30.8085 18.9981 30.8085C19.8572 30.8085 20.681 30.502 21.2885 29.9564C21.8959 29.4108 22.2371 28.6708 22.2371 27.8992V26.9549H22.3523C22.829 26.9689 23.2927 26.813 23.6419 26.5211C23.9911 26.2291 24.1976 25.825 24.2162 25.3968V24.597C24.2159 24.3156 24.1258 24.0401 23.9565 23.8033C24.2513 23.6806 24.5016 23.4857 24.6788 23.241C24.8559 22.9963 24.9526 22.7118 24.9579 22.42V21.623C24.9567 21.4187 24.9092 21.2169 24.8183 21.0297C24.7274 20.8425 24.5949 20.6739 24.4291 20.5342C24.5949 20.3945 24.7274 20.2259 24.8183 20.0387C24.9092 19.8515 24.9567 19.6497 24.9579 19.4454V18.648C24.9526 18.3562 24.8558 18.0717 24.6787 17.8271C24.5016 17.5825 24.2513 17.3877 23.9565 17.2651C24.1259 17.0281 24.216 16.7525 24.2162 16.4709V15.6735C24.1976 15.2453 23.9911 14.8412 23.6419 14.5492C23.2927 14.2573 22.829 14.1014 22.3523 14.1154H22.235V11.4955C23.2967 10.9753 24.1833 10.2084 24.802 9.275C25.4207 8.34161 25.7488 7.27604 25.752 6.18974C25.7552 5.10345 25.4333 4.03634 24.82 3.10006C24.2068 2.16377 23.3247 1.39271 22.266 0.867519C22.1861 0.827782 22.0959 0.807466 22.0045 0.808576C21.9131 0.809686 21.8236 0.832183 21.7449 0.873847C21.6661 0.915511 21.6008 0.974901 21.5554 1.04616C21.51 1.11741 21.4861 1.19807 21.486 1.28017V5.89444L18.9971 7.09557L16.5082 5.89444V1.28017C16.5081 1.19807 16.4841 1.11741 16.4387 1.04616C16.3933 0.974901 16.328 0.915511 16.2493 0.873847C16.1705 0.832183 16.081 0.809686 15.9896 0.808576C15.8982 0.807466 15.8081 0.827782 15.7281 0.867519C14.6691 1.39245 13.7867 2.16341 13.1732 3.0997C12.5597 4.03599 12.2376 5.10319 12.2408 6.18961C12.2439 7.27603 12.572 8.34172 13.1909 9.27516C13.8098 10.2086 14.6966 10.9755 15.7586 11.4955V11.7316H13.0095C12.3958 11.7317 11.7912 11.8641 11.2463 12.1175C10.7013 12.371 10.232 12.7381 9.8777 13.1881L8.5741 14.8458H6.65025V14.1541C6.65025 14.0289 6.59487 13.9088 6.49629 13.8203C6.39772 13.7317 6.26402 13.682 6.12461 13.682H1.27766C1.13825 13.682 1.00455 13.7317 0.905971 13.8203C0.807394 13.9088 0.752014 14.0289 0.752014 14.1541V25.47C0.752014 25.5952 0.807394 25.7153 0.905971 25.8039C1.00455 25.8924 1.13825 25.9421 1.27766 25.9421V25.9421ZM5.59897 24.9979H1.8033V22.8921H5.59897V24.9979ZM21.1895 27.8963C21.1895 28.4175 20.959 28.9173 20.5488 29.2859C20.1385 29.6544 19.582 29.8614 19.0018 29.8614C18.4216 29.8614 17.8651 29.6544 17.4548 29.2859C17.0446 28.9173 16.8141 28.4175 16.8141 27.8963V26.9521H17.7955C17.7162 27.1386 17.6886 27.3396 17.715 27.5378C17.7415 27.7361 17.8212 27.9256 17.9472 28.09C18.0733 28.2544 18.242 28.3889 18.4387 28.4817C18.6355 28.5746 18.8544 28.6231 19.0767 28.6231C19.299 28.6231 19.5179 28.5746 19.7147 28.4817C19.9114 28.3889 20.0801 28.2544 20.2062 28.09C20.3322 27.9256 20.4119 27.7361 20.4384 27.5378C20.4648 27.3396 20.4372 27.1386 20.358 26.9521H21.1895V27.8963ZM19.3046 27.5961C19.2596 27.6364 19.2022 27.6639 19.1399 27.6751C19.0775 27.6862 19.0128 27.6804 18.954 27.6586C18.8953 27.6367 18.8451 27.5996 18.8097 27.5521C18.7744 27.5046 18.7555 27.4488 18.7555 27.3916C18.7555 27.3345 18.7744 27.2786 18.8097 27.2311C18.8451 27.1836 18.8953 27.1466 18.954 27.1247C19.0128 27.1028 19.0775 27.0971 19.1399 27.1082C19.2022 27.1193 19.2596 27.1468 19.3046 27.1872C19.3643 27.2418 19.3976 27.3154 19.3972 27.392C19.3968 27.4686 19.3628 27.5419 19.3025 27.5961H19.3046ZM16.8099 13.0809V11.6801H21.1848V13.0809V14.113H16.8099V13.0809ZM13.2923 6.17631C13.293 5.40368 13.4881 4.64119 13.8629 3.94577C14.2377 3.25035 14.7826 2.63998 15.4569 2.16025V6.17631C15.4569 6.26166 15.4826 6.34541 15.5314 6.41865C15.5802 6.4919 15.6502 6.5519 15.7339 6.59227L18.7479 8.04789C18.8244 8.08483 18.9099 8.10417 18.9968 8.10417C19.0837 8.10417 19.1692 8.08483 19.2457 8.04789L22.2608 6.59227C22.3444 6.55183 22.4143 6.49181 22.463 6.41857C22.5116 6.34533 22.5373 6.26161 22.5373 6.17631V2.16072C23.2879 2.69304 23.877 3.3867 24.2501 4.17761C24.6233 4.96851 24.7686 5.83114 24.6724 6.6858C24.5763 7.54045 24.2419 8.35956 23.7001 9.06743C23.1583 9.7753 22.4267 10.3491 21.5727 10.7358H16.4214C15.4789 10.3129 14.6866 9.66199 14.1338 8.85642C13.5809 8.05086 13.2895 7.12263 13.2923 6.17631V6.17631ZM8.84639 15.7901C8.93054 15.7901 9.01347 15.772 9.0882 15.7372C9.16293 15.7025 9.22728 15.6521 9.27584 15.5904L10.7361 13.7344C10.9933 13.4078 11.334 13.1413 11.7296 12.9574C12.1252 12.7734 12.5641 12.6774 13.0095 12.6773H15.7586V14.113H13.5756V15.0573H22.3538C22.5518 15.0438 22.7477 15.1005 22.8997 15.2152C23.0516 15.33 23.1474 15.4936 23.1665 15.6711V16.4686C23.1481 16.6466 23.0527 16.8109 22.9007 16.9263C22.7487 17.0416 22.5523 17.0987 22.3538 17.0852H18.9971V18.0295H23.0971C23.295 18.0159 23.4909 18.0726 23.6427 18.1874C23.7946 18.3022 23.8902 18.4658 23.9092 18.6433V19.4407C23.891 19.6187 23.7957 19.7831 23.6437 19.8984C23.4918 20.0138 23.2955 20.0709 23.0971 20.0573H18.9971V21.0016H23.0971C23.2955 20.9881 23.4918 21.0452 23.6437 21.1606C23.7957 21.2759 23.891 21.4403 23.9092 21.6182V22.4152C23.891 22.5932 23.7957 22.7576 23.6437 22.8729C23.4918 22.9883 23.2955 23.0454 23.0971 23.0318H18.9971V23.9761H22.3538C22.5518 23.9626 22.7477 24.0193 22.8997 24.134C23.0516 24.2488 23.1474 24.4124 23.1665 24.5899V25.3874C23.1475 25.5649 23.0517 25.7287 22.8998 25.8434C22.7478 25.9582 22.5518 26.0148 22.3538 26.0012H12.8171C12.1312 26.0016 11.4694 25.7742 10.9589 25.3628L9.19699 23.9464C9.1006 23.8689 8.97577 23.826 8.84639 23.826H6.65025V15.7901H8.84639ZM5.59897 14.6263V21.9478H1.8033V14.6263H5.59897Z" fill="black"/>
<path d="M3.70139 23.4086C3.58181 23.4085 3.46489 23.4403 3.36541 23.4999C3.26593 23.5595 3.18837 23.6442 3.14254 23.7435C3.09671 23.8427 3.08466 23.9518 3.10793 24.0572C3.13119 24.1626 3.18872 24.2594 3.27324 24.3353C3.35776 24.4113 3.46547 24.4631 3.58274 24.4841C3.70001 24.5051 3.82158 24.4943 3.93207 24.4532C4.04256 24.4122 4.137 24.3426 4.20344 24.2533C4.26989 24.164 4.30535 24.059 4.30535 23.9516C4.30535 23.8076 4.24174 23.6696 4.12849 23.5678C4.01524 23.466 3.86162 23.4087 3.70139 23.4086Z" fill="black"/>
</svg>
