<svg width="13" height="11" viewBox="0 0 13 11" fill="none" xmlns="http://www.w3.org/2000/svg">
<path d="M13 8.98431C13 9.27662 12.9199 9.54754 12.7914 9.786L8.68675 5.07572L12.7469 1.43238C12.9049 1.68945 13 1.99142 13 2.31774V8.98431ZM6.50002 5.93096L12.1496 0.860999C11.9177 0.730829 11.6566 0.651001 11.375 0.651001H1.62499C1.34302 0.651001 1.08188 0.730829 0.85098 0.860999L6.50002 5.93096ZM8.07506 5.62424L6.76735 6.79855C6.69086 6.86689 6.59561 6.90102 6.50002 6.90102C6.40437 6.90102 6.30911 6.86689 6.23263 6.79855L4.92461 5.62419L0.768063 10.3946C1.0172 10.5549 1.30918 10.651 1.62496 10.651H11.375C11.6907 10.651 11.9829 10.5549 12.2319 10.3946L8.07506 5.62424ZM0.253135 1.43235C0.0952204 1.68942 0 1.99139 0 2.31774V8.98431C0 9.27662 0.0797879 9.54762 0.208687 9.786L4.31283 5.07492L0.253135 1.43235Z" fill="black"/>
</svg>
