<svg width="13" height="13" viewBox="0 0 13 13" fill="none" xmlns="http://www.w3.org/2000/svg">
<g clip-path="url(#clip0_2_5)">
<path d="M12.9415 10.3624L12.8768 10.1674C12.7236 9.71178 12.2212 9.23663 11.7598 9.11144L10.0518 8.64474C9.58872 8.51877 8.92802 8.68822 8.5891 9.02713L7.97099 9.64535C5.7246 9.03825 3.96306 7.27629 3.35686 5.02993L3.97502 4.41166C4.31389 4.07272 4.48329 3.41279 4.35729 2.94954L3.89157 1.24047C3.76556 0.778063 3.28963 0.275661 2.83499 0.124071L2.64002 0.0585076C2.18452 -0.0930831 1.53489 0.0602243 1.19605 0.399129L0.271422 1.32478C0.106237 1.48912 0.000663463 1.95918 0.000663463 1.96089C-0.031676 4.89705 1.11941 7.7259 3.19596 9.80284C5.2674 11.8747 8.08516 13.0243 11.0122 12.9996C11.0275 12.9996 11.5111 12.8957 11.6763 12.7314L12.601 11.8065C12.9398 11.4676 13.0931 10.8179 12.9415 10.3624Z" fill="black"/>
</g>
<defs>
<clipPath id="clip0_2_5">
<rect width="13" height="13" fill="white"/>
</clipPath>
</defs>
</svg>
